<svg id="svg" version="1.1" width="400" height="399" xmlns="http://www.w3.org/2000/svg" xmlns:xlink="http://www.w3.org/1999/xlink" style="display: block;"><g id="svgg"><path id="path0" d="M140.000 30.500 L 140.000 41.000 189.500 41.000 L 239.000 41.000 239.000 100.000 L 239.000 159.000 298.000 159.000 L 357.000 159.000 357.000 256.500 L 357.000 354.000 248.500 354.000 L 140.000 354.000 140.000 364.500 L 140.000 375.000 258.500 375.000 L 377.000 375.000 377.000 256.500 L 377.000 138.000 318.500 138.000 L 260.000 138.000 260.000 79.000 L 260.000 20.000 200.000 20.000 L 140.000 20.000 140.000 30.500 M82.000 89.500 L 82.000 100.000 131.000 100.000 L 180.000 100.000 180.000 158.500 L 180.000 217.000 239.000 217.000 L 298.000 217.000 298.000 266.500 L 298.000 316.000 308.000 316.000 L 318.000 316.000 318.000 256.500 L 318.000 197.000 259.500 197.000 L 201.000 197.000 201.000 138.000 L 201.000 79.000 141.500 79.000 L 82.000 79.000 82.000 89.500 M23.000 197.500 L 23.000 257.000 62.500 257.000 L 102.000 257.000 102.000 246.500 L 102.000 236.000 72.500 236.000 L 43.000 236.000 43.000 187.000 L 43.000 138.000 33.000 138.000 L 23.000 138.000 23.000 197.500 " stroke="none" fill="#000000" fill-rule="evenodd"></path></g></svg>